<?xml version="1.0" encoding="UTF-8" standalone="no"?>
<!-- Created with Inkscape (http://www.inkscape.org/) -->

<svg
   xmlns:dc="http://purl.org/dc/elements/1.1/"
   xmlns:cc="http://creativecommons.org/ns#"
   xmlns:rdf="http://www.w3.org/1999/02/22-rdf-syntax-ns#"
   xmlns:svg="http://www.w3.org/2000/svg"
   xmlns="http://www.w3.org/2000/svg"
   xmlns:sodipodi="http://sodipodi.sourceforge.net/DTD/sodipodi-0.dtd"
   xmlns:inkscape="http://www.inkscape.org/namespaces/inkscape"
   width="52.230324mm"
   height="52.230915mm"
   viewBox="0 0 52.230324 52.230915"
   version="1.1"
   id="svg2121"
   inkscape:version="0.92.4 (5da689c313, 2019-01-14)"
   sodipodi:docname="logo.svg">
  <defs
     id="defs2115" />
  <sodipodi:namedview
     id="base"
     pagecolor="#ffffff"
     bordercolor="#666666"
     borderopacity="1.0"
     inkscape:pageopacity="0.0"
     inkscape:pageshadow="2"
     inkscape:zoom="1.4"
     inkscape:cx="-17.426179"
     inkscape:cy="79.049797"
     inkscape:document-units="mm"
     inkscape:current-layer="layer1"
     showgrid="false"
     fit-margin-top="0"
     fit-margin-left="0"
     fit-margin-right="0"
     fit-margin-bottom="0"
     inkscape:pagecheckerboard="true" />
  <metadata
     id="metadata2118">
    <rdf:RDF>
      <cc:Work
         rdf:about="">
        <dc:format>image/svg+xml</dc:format>
        <dc:type
           rdf:resource="http://purl.org/dc/dcmitype/StillImage" />
        <dc:title></dc:title>
      </cc:Work>
    </rdf:RDF>
  </metadata>
  <g
     inkscape:label="Layer 1"
     inkscape:groupmode="layer"
     id="layer1"
     transform="translate(122.8771,24.692837)">
    <path
       inkscape:connector-curvature="0"
       style="color:#000000;font-style:normal;font-variant:normal;font-weight:normal;font-stretch:normal;font-size:medium;line-height:normal;font-family:sans-serif;font-variant-ligatures:normal;font-variant-position:normal;font-variant-caps:normal;font-variant-numeric:normal;font-variant-alternates:normal;font-feature-settings:normal;text-indent:0;text-align:start;text-decoration:none;text-decoration-line:none;text-decoration-style:solid;text-decoration-color:#000000;letter-spacing:normal;word-spacing:normal;text-transform:none;writing-mode:lr-tb;direction:ltr;text-orientation:mixed;dominant-baseline:auto;baseline-shift:baseline;text-anchor:start;white-space:normal;shape-padding:0;clip-rule:nonzero;display:inline;overflow:visible;visibility:visible;opacity:1;isolation:auto;mix-blend-mode:normal;color-interpolation:sRGB;color-interpolation-filters:linearRGB;solid-color:#000000;solid-opacity:1;vector-effect:none;fill:#ffffff;fill-opacity:1;fill-rule:nonzero;stroke:none;stroke-width:1.72691047;stroke-linecap:butt;stroke-linejoin:bevel;stroke-miterlimit:4;stroke-dasharray:none;stroke-dashoffset:0;stroke-opacity:1;paint-order:markers fill stroke;color-rendering:auto;image-rendering:auto;shape-rendering:auto;text-rendering:auto;enable-background:accumulate"
       d="m -121.99862,-24.705247 -0.86558,0.865582 v 39.208974 l 0.86558,0.862997 h 0.0377 l 11.2081,11.273732 0.0129,-0.01241 0.032,0.03204 h 39.21105 l 0.863,-0.863512 V -12.54888 l -0.0134,-0.01344 0.004,-0.0041 -11.28356,-11.250992 v -0.02222 l -0.86296,-0.86561 z"
       id="rect845-3-3"
       sodipodi:nodetypes="ccccccccccccccccc"
       inkscape:export-xdpi="165.30342"
       inkscape:export-ydpi="165.30342" />
    <path
       inkscape:connector-curvature="0"
       style="color:#000000;font-style:normal;font-variant:normal;font-weight:normal;font-stretch:normal;font-size:medium;line-height:normal;font-family:sans-serif;font-variant-ligatures:normal;font-variant-position:normal;font-variant-caps:normal;font-variant-numeric:normal;font-variant-alternates:normal;font-feature-settings:normal;text-indent:0;text-align:start;text-decoration:none;text-decoration-line:none;text-decoration-style:solid;text-decoration-color:#000000;letter-spacing:normal;word-spacing:normal;text-transform:none;writing-mode:lr-tb;direction:ltr;text-orientation:mixed;dominant-baseline:auto;baseline-shift:baseline;text-anchor:start;white-space:normal;shape-padding:0;clip-rule:nonzero;display:inline;overflow:visible;visibility:visible;opacity:1;isolation:auto;mix-blend-mode:normal;color-interpolation:sRGB;color-interpolation-filters:linearRGB;solid-color:#000000;solid-opacity:1;vector-effect:none;fill:#171717;fill-opacity:1;fill-rule:nonzero;stroke:none;stroke-width:1.72691035;stroke-linecap:butt;stroke-linejoin:bevel;stroke-miterlimit:4;stroke-dasharray:none;stroke-dashoffset:0;stroke-opacity:1;paint-order:markers fill stroke;color-rendering:auto;image-rendering:auto;shape-rendering:auto;text-rendering:auto;enable-background:accumulate"
       d="m -122.01152,-24.692837 -0.86558,0.865582 v 39.208974 l 0.86558,0.862997 h 0.0377 l 11.2081,11.273732 0.0129,-0.01241 0.032,0.03204 h 39.211048 l 0.862994,-0.863515 v -39.211034 l -0.01344,-0.01344 0.0041,-0.0041 -11.28355,-11.250994 v -0.02222 l -0.862968,-0.86561 z m 0.863,1.728578 h 37.482463 v 37.482466 h -37.482463 z m 39.208972,1.597319 9.61802,9.590627 -0.05168,0.103355 V 24.71655 l -9.566341,-9.68933 z m -37.599772,37.611656 h 36.374008 l 9.446969,9.56686 h -36.138877 l -0.11421,0.05684 z"
       id="rect845-3"
       inkscape:export-xdpi="165.30342"
       inkscape:export-ydpi="165.30342" />
    <g
       aria-label="i"
       transform="matrix(0.39693371,0,0,0.39693371,-186.06614,-169.43677)"
       style="font-style:normal;font-variant:normal;font-weight:normal;font-stretch:normal;font-size:40px;line-height:1.25;font-family:'Roboto Mono';-inkscape-font-specification:'Roboto Mono';letter-spacing:0px;word-spacing:0px;opacity:0.98000004;fill:#ff3c5e;fill-opacity:1;stroke:none"
       id="flowRoot924-0-3"
       inkscape:export-xdpi="165.30342"
       inkscape:export-ydpi="165.30342">
      <path
         d="m 182.73633,393.20117 h 11.26953 v 17.26563 h 11.21918 v 3.86718 h -22.48871 v -3.86718 h 6.5625 v -13.37891 h -6.5625 z m 6.17187,-5.46875 c 0,-0.72917 0.23438,-1.32812 0.70313,-1.79687 0.46875,-0.48177 1.1263,-0.72266 1.97265,-0.72266 0.85938,0 1.52344,0.24089 1.99219,0.72266 0.48177,0.46875 0.72266,1.0677 0.72266,1.79687 0,0.72917 -0.24089,1.33464 -0.72266,1.81641 -0.46875,0.46875 -1.13281,0.70312 -1.99219,0.70312 -0.84635,0 -1.5039,-0.23437 -1.97265,-0.70312 -0.46875,-0.48177 -0.70313,-1.08724 -0.70313,-1.81641 z"
         style="font-style:normal;font-variant:normal;font-weight:bold;font-stretch:normal;font-family:'Roboto Mono';-inkscape-font-specification:'Roboto Mono Bold';fill:#ff046a;fill-opacity:1"
         id="path1051-6-6"
         inkscape:connector-curvature="0"
         sodipodi:nodetypes="cccccccccccscscssscs" />
    </g>
    <g
       aria-label="d"
       transform="matrix(0.4162176,0,0,0.4162176,-271.87448,-192.2797)"
       style="font-style:normal;font-variant:normal;font-weight:bold;font-stretch:normal;font-size:40px;line-height:1.25;font-family:'Roboto Mono';-inkscape-font-specification:'Roboto Mono Bold';letter-spacing:0px;word-spacing:0px;fill:#171717;fill-opacity:1;stroke:none"
       id="flowRoot1109-7"
       inkscape:export-xdpi="680.8457"
       inkscape:export-ydpi="680.8457" />
    <g
       aria-label="u"
       transform="matrix(0.4162176,0,0,0.4162176,-259.60693,-193.95684)"
       style="font-style:normal;font-variant:normal;font-weight:bold;font-stretch:normal;font-size:40px;line-height:1.25;font-family:'Roboto Mono';-inkscape-font-specification:'Roboto Mono Bold';letter-spacing:0px;word-spacing:0px;fill:#171717;fill-opacity:1;stroke:none"
       id="flowRoot1109-1-3"
       inkscape:export-xdpi="680.8457"
       inkscape:export-ydpi="680.8457" />
    <g
       aria-label="e"
       transform="matrix(0.4162176,0,0,0.4162176,-262.29742,-208.14576)"
       style="font-style:normal;font-variant:normal;font-weight:bold;font-stretch:normal;font-size:40px;line-height:1.25;font-family:'Roboto Mono';-inkscape-font-specification:'Roboto Mono Bold';letter-spacing:0px;word-spacing:0px;fill:#171717;fill-opacity:1;stroke:none"
       id="flowRoot1109-1-2-6"
       inkscape:export-xdpi="165.30342"
       inkscape:export-ydpi="165.30342">
      <path
         inkscape:connector-curvature="0"
         id="path2062"
         d="m 393.87109,480.41016 q -2.34375,0 -4.27734,-0.78125 -1.93359,-0.78125 -3.32031,-2.14844 -1.36719,-1.36719 -2.12891,-3.22266 -0.76172,-1.875 -0.76172,-4.04297 v -0.80078 q 0,-2.51953 0.80078,-4.53125 0.82032,-2.01172 2.16797,-3.4375 1.36719,-1.42578 3.16406,-2.1875 1.81641,-0.76172 3.8086,-0.76172 2.30469,0 4.0625,0.78125 1.75781,0.76172 2.92969,2.16797 1.1914,1.38672 1.79687,3.30078 0.60547,1.91407 0.60547,4.19922 v 1.97266 h -14.64844 q 0.11719,1.23047 0.60547,2.28515 0.48828,1.05469 1.26953,1.83594 0.80078,0.76172 1.85547,1.21094 1.07422,0.42969 2.34375,0.42969 1.77734,0 3.26172,-0.70313 1.50391,-0.70312 2.44141,-1.93359 l 2.53906,2.38281 q -0.50781,0.76172 -1.3086,1.48438 -0.80078,0.70312 -1.875,1.26953 -1.07421,0.54687 -2.42187,0.8789 -1.32813,0.35157 -2.91016,0.35157 z m -0.5664,-18.14454 q -0.97657,0 -1.81641,0.35157 -0.83984,0.35156 -1.50391,1.03515 -0.66406,0.66407 -1.13281,1.64063 -0.44922,0.95703 -0.64453,2.1875 h 9.90234 v -0.35156 q -0.0586,-0.9375 -0.37109,-1.79688 -0.29297,-0.87891 -0.87891,-1.5625 -0.58593,-0.68359 -1.48437,-1.09375 -0.87891,-0.41016 -2.07031,-0.41016 z m 11.0203,51.21927 c -1.03832,0.80358 -1.53748,1.01484 -2.65763,1.5264 -1.12015,0.51157 -2.39332,0.77992 -3.65635,0.77992 -1.09375,0 -2.09635,-0.16927 -3.00781,-0.50782 -0.89843,-0.33854 -1.67317,-0.87239 -2.32422,-1.60156 -0.63802,-0.74219 -1.13932,-1.67969 -1.5039,-2.8125 -0.35157,-1.14583 -0.52735,-2.51953 -0.52735,-4.12109 v -13.77137 h 4.66797 v 13.81043 c 0,1.01563 0.0716,1.85547 0.21485,2.51953 0.15625,0.66407 0.39062,1.19141 0.70312,1.58203 0.3125,0.39063 0.70313,0.67058 1.17188,0.83985 0.46875,0.15625 1.04269,0.1628 1.69373,0.0785 1.23965,-0.16048 2.24507,-0.56448 3.0133,-1.04625 0.76823,-0.49479 1.34765,-1.15886 1.73828,-1.99219 v -15.79192 h 4.6875 v 22.40418 h -4.21875 z m -43.93239,-2.25426 c -1.2e-4,-1.60156 0.19531,-3.0664 0.58594,-4.39453 0.39063,-1.32812 0.95052,-2.46744 1.67969,-3.41797 0.72917,-0.95052 1.60807,-1.6862 2.63672,-2.20703 1.04167,-0.52083 2.20703,-0.78125 3.49609,-0.78125 1.15885,0 2.18099,0.20182 3.06641,0.60547 0.88541,0.39063 1.66015,0.71705 2.32422,1.45924 v -14.35538 h 4.6875 v 33.81411 h -4.23829 l 0.0185,-1.41801 c -1.02927,0.75008 -1.23255,0.89646 -2.23378,1.27647 -1.00122,0.38002 -2.42661,0.53217 -3.66359,0.53217 -1.27604,0 -2.42838,-0.26693 -3.45703,-0.80079 -1.02865,-0.54687 -1.90755,-1.29557 -2.63672,-2.24609 -0.71615,-0.95052 -1.27604,-2.07682 -1.67969,-3.37891 -0.39063,-1.3151 -0.58583,-2.74088 -0.58594,-4.27734 z m 4.66797,0.41016 c 0,0.95052 0.0911,1.84245 0.27344,2.67578 0.18229,0.83333 0.46875,1.5625 0.85937,2.1875 0.40365,0.625 0.91146,1.11979 1.52344,1.48438 0.625,0.35156 1.36719,0.52734 2.22656,0.52734 1.06771,0 1.94011,-0.22786 2.61719,-0.68359 0.67709,-0.46875 1.21745,-1.09375 1.6211,-1.875 v -8.93839 c -0.40365,-0.76823 -0.95052,-1.38021 -1.64063,-1.83594 -0.67708,-0.45573 -1.52994,-0.92489 -2.55859,-0.92489 -0.8724,0 -1.6211,0.18229 -2.2461,0.54687 -0.61198,0.36459 -1.11979,0.86589 -1.52343,1.50391 -0.39063,0.63802 -0.6836,1.38021 -0.87891,2.22656 -0.18229,0.84635 -0.27344,1.74479 -0.27344,2.69531 z" />
    </g>
  </g>
</svg>
